<?xml version="1.0" encoding="utf-8"?>
<!-- Generator: Adobe Illustrator 19.0.0, SVG Export Plug-In . SVG Version: 6.00 Build 0)  -->
<svg version="1.1" id="Layer_1" xmlns="http://www.w3.org/2000/svg" xmlns:xlink="http://www.w3.org/1999/xlink" x="0px" y="0px"
	 viewBox="0 0 710 955" style="enable-background:new 0 0 710 955;" xml:space="preserve">
<style type="text/css">
	.st0{fill:#F6BF26;}
	.st1{fill:#FFFFFF;}
	.st2{fill:#F8BF27;}
</style>
<g>
	<path class="st0" d="M260.3,52.8c30.1-8.7,61.6-11.8,92.8-10.2c14.4,0.6,28.7,0.6,43,2c48.3,4.7,95.2,22.2,134.8,50.1
		c48,33.5,85.4,82.1,104.6,137.4c3.1,8.1,4.9,16.8,7.7,25c13.6,5.1,25.5,14.2,34.5,25.6c13.1,16.5,20.6,37,23.1,57.9
		c2.5,21.8-0.3,44.4-9,64.7c-7.3,16.9-19.1,32.2-34.9,41.9c-13,8-28.9,11.5-44,8.9c-5.7-1-10.6-5.4-12.1-11c-0.9-3.4-0.5-7-0.5-10.5
		c0.6-55,1.2-110,1.7-165c-0.1-2.8,0.7-5.5,1.9-8.1c-10.2-39-31-74.9-58.9-103.9c-37.5-39.1-88.2-65.4-142-73c-15.9-2.4-32-2.5-48-3
		c-6.6-0.2-13.3-0.5-19.9-0.5c-41.6,0.1-83.1,11.4-118.9,32.6c-36.2,21.4-66.4,52.8-85.9,90.1c-8.6,16.3-15.1,33.8-19.4,51.8
		c-0.8,2.6,0.6,5.3,0.5,7.9c-0.6,57-1.2,114.1-1.8,171.1c0.1,5.1-2.3,10.1-6.5,13c-4.6,3.4-10.6,3.1-16,3
		c-18.1-0.7-35.1-9.7-47.5-22.6c-16.5-17.1-25.8-40.2-28.8-63.6c-3.1-25.9,1.1-53.1,14.1-75.9c10.3-18.2,26.8-33.7,47.4-39
		c10.2-44.4,32-86.1,63-119.6C168.7,93.2,212.6,66.4,260.3,52.8z"/>
	<path class="st0" d="M501.2,599.6c5.2,0,10.3,0,15.5,0c0,48.9,0,97.9,0,146.8c-5.2,0-10.3,0-15.5,0
		C501.3,697.5,501.3,648.5,501.2,599.6z"/>
	<path class="st0" d="M550.2,599.6c5.1,0,10.2,0,15.3,0c0,25.6,0,51.3,0,76.9c0,5.9-0.6,11.8-0.7,17.7c4.1-4.5,7.6-9.5,11.8-14
		c10.7-11.6,21.7-23,32.5-34.5c0.8-0.8,1.6-1.9,2.7-2.4c6-0.2,12.1,0,18.1-0.1c-14,14.6-27.8,29.4-41.9,43.9
		c14.8,19.9,29.9,39.7,44.9,59.5c-6.3,0-12.5,0-18.8,0c-12.2-16.3-24.4-32.6-36.6-49c-4,3.3-8,6.8-11.9,10.2c0,12.9,0,25.8,0,38.8
		c-5.1,0-10.2,0-15.3,0C550.3,697.5,550.3,648.5,550.2,599.6z"/>
	<g>
		<path class="st0" d="M131.2,607.9c4.4,0,8.9,0,13.4,0c18.1,46.1,36.1,92.4,54.3,138.5c-5.5,0-11,0-16.5,0
			c-5.6-14.7-11.4-29.2-17.1-43.9c-18.6,0.1-37.1-0.1-55.7,0.1c-5.4,14.7-11.3,29.1-16.8,43.8c-5.4,0-10.8,0-16.1,0
			C94.9,700.3,113,654.1,131.2,607.9z M137.6,625.5c-5.5,21.5-14.8,41.8-22.3,62.6c15,0.1,29.9,0,44.9,0
			C152.7,667.3,144.1,646.8,137.6,625.5z"/>
	</g>
	<path class="st0" d="M289.8,608.5c34.5,0,68.9,0,103.3,0c0,4.7,0,9.4,0,14.1c-14.6,0-29.2,0-43.8,0c0.1,41.3,0,82.6,0,123.8
		c-5.3,0-10.6,0-15.9,0c0.1-41.3,0-82.6,0-123.8c-14.6-0.1-29.2,0-43.8,0C289.8,617.8,289.8,613.2,289.8,608.5z"/>
	<g>
		<path class="st0" d="M397.6,650.2c13.9-7.3,30.2-10.4,45.8-8c7.4,1.2,14.9,4.4,19.4,10.6c4.7,6.5,6,14.8,6,22.7
			c0,23.7,0,47.3,0,71c-3.8,0-7.6,0-11.5,0c-1.1-5.1-2-10.2-3.3-15.2c-4.8,5.1-9.4,10.6-15.9,13.5c-8.8,3.8-18.9,4.2-28.3,2.8
			c-9.5-1.5-18.5-7.7-21.8-17c-3.1-9-3.1-19.7,2-28c4.3-7,11.9-11.1,19.5-13.5c14.3-4.5,29.4-3.8,44.2-4.5c0-7.5,0.5-15.6-3.5-22.3
			c-2.9-5-8.7-7.4-14.2-7.9c-11.7-1.2-23.2,2.7-33.6,7.6C400.8,658,399.2,654.1,397.6,650.2z M415.1,699.7
			c-5.8,1.9-10.8,6.5-12.2,12.5c-1.5,6.4-0.8,14.2,4.5,18.8c5.7,4.8,13.7,4.9,20.7,4.1c8.9-1,17.5-5.9,21.7-14
			c4.3-7.8,3.6-17.1,3.6-25.7C440.6,696.3,427.4,695.4,415.1,699.7z"/>
	</g>
	<path class="st0" d="M199.2,643.1c5.5,0,11.1,0,16.6,0c9.5,26.8,19.8,53.3,28.6,80.3c1.2,3.1,1.4,6.6,3.2,9.5
		c4.6-16.3,10.8-32.2,16.5-48.2c5-13.9,10.1-27.7,15.1-41.6c5.5,0,11.1,0,16.6,0c-13.1,34.4-26.2,68.8-39.2,103.3
		c-6.1,0-12.2,0-18.3,0C225.4,711.9,212.2,677.5,199.2,643.1z"/>
</g>
<g>
	<g>
		<path class="st1" d="M228,169.3c32.6-23.4,71.8-37.7,111.9-40.5c38.1-2.7,76.8,4.6,111.2,21.2c44.1,21.1,80.5,57.4,102.1,101.2
			c-3.5,2.9-6.2,6.8-7.7,11.1c-1.9,5.2-1.5,10.8-1.6,16.2c-0.5,48.3-1,96.6-1.6,144.9c0,4.3-0.3,8.5,0.3,12.8
			c0.9,5.6,3.6,11,7.7,14.9c-17.3,32.6-42.9,60.7-73.8,80.8c-35.2,23.2-77.3,35.9-119.5,35.9C315,568,272.9,556,237.5,533.2
			c-32.1-20.5-58.6-49.6-76.3-83.3l0.4-0.5c3.9-4.8,5.9-10.8,5.9-16.9c0.6-50.7,1.1-101.3,1.7-152c0-4.6,0.4-9.3-0.5-13.9
			c-1.3-6.2-4.8-12-9.9-15.8C174.7,218.5,198.7,190.3,228,169.3z M325.8,165.8c-37.9,6.1-73.8,24.4-101,51.5
			c-23.4,23.1-40.5,52.5-48.9,84.3c-8.6,32.3-8.4,67,0.8,99.1c7.7,26.9,21.5,51.9,40.1,72.7c13.9-12.8,27.9-25.6,41.8-38.5
			c-14.8-16.8-25.2-37.5-29.7-59.5c-5.6-26.7-2.3-55.2,9.1-80c12.9-28.3,36.4-51.6,64.9-64.2c24-10.8,51.3-13.9,77.1-8.9
			c26.3,5,50.9,18.4,69.3,37.8c15.4,16.2,26.5,36.4,31.9,58.1c9.2,36.5,1.3,76.8-21,107.1c-18.1,24.9-45.3,43-75.3,49.9
			c-23.5,5.6-48.4,4-71.2-3.5c-5.4,18.2-10.8,36.4-16.1,54.6c33.6,10.8,70.1,12.3,104.3,3.5c37.6-9.5,71.9-31.1,96.8-60.9
			c23.8-28.3,38.8-63.9,42.4-100.6c4.3-40.8-5.5-82.9-27.4-117.6c-21.3-34.1-53.9-61.1-91.5-75.2C391.6,164,358,160.6,325.8,165.8z
			 M326,237.4c-27,6.9-51.2,24-67,46.9c3.8,0.3,7.6,3.1,8,7.1c0.9,5-4.1,10-9.2,8.9c-2.6-0.2-4.3-2.3-6.2-3.8
			c-10.3,19.9-14.6,42.8-12.4,65.1c2.3,24,12.5,47.1,28.3,65.2c11-10.1,22-20.3,32.9-30.5c-12.2-14.5-18.6-33.9-16.6-52.8
			c1.4-16.3,8.7-32.1,20.3-43.7c9.9-10.1,22.8-17.1,36.7-20c16.1-3.3,33.3-0.9,47.9,6.8c15.2,8,27.3,21.6,33.4,37.7
			c5.4,13.7,6,28.9,2.8,43.2c3.3-0.9,7.4-0.5,9.7,2.4c3.4,3.7,1.9,10.2-2.6,12.2c-3.9,2.1-8.7,0-10.6-3.7
			c-7.6,16.8-21.4,30.9-38.6,37.9c-16.7,7.1-36.1,7.1-53,0.6c-4.2,14.5-8.5,29-12.7,43.5c17.5,6,36.4,7.8,54.8,5.1
			c-1.9-2.8-3.2-6.4-1.3-9.6c2.1-4.5,8.6-5.6,12.2-2.3c2.7,2.2,3.1,5.9,2.3,9.1c28.4-7.5,53.8-26,69.2-51.1
			c19.4-30.8,23-70.9,9.2-104.7c-10.9-27.4-32.5-50.4-59.4-62.6C379.9,233.2,351.8,230.7,326,237.4z M313.5,307.9
			c-11.3,11.1-17.8,26.8-17.6,42.6c-0.1,13.8,5.1,27.5,14.1,37.9c9.9-9,19.8-18.1,29.7-27.2c2.6-2.4,5.4-4.6,7.6-7.4
			c0.3,0.6,0.7,1.2,1,1.9c-5.1,16.5-9.9,33.1-14.8,49.6c9.1,3.5,19,4.9,28.7,3.7c15.6-1.8,30.4-10.1,40-22.5
			c8.2-10.4,12.7-23.7,12.5-37c0-17.5-8.4-34.7-22-45.6c-9.4-7.7-21.4-12.3-33.5-13.1C342.3,289.6,325.3,296,313.5,307.9z"/>
	</g>
	<path class="st1" d="M440.4,206c5.5-3.1,12.9,2.6,11.2,8.7c-0.8,5.5-8.1,8.3-12.4,4.8C434.5,216.3,435.2,208.3,440.4,206z"/>
	<path class="st1" d="M280.2,285.5c5.4-2.1,11.5,3.4,10.3,8.9c-0.8,5.8-8.7,8.6-13,4.6C272.9,295.4,274.5,287.1,280.2,285.5z"/>
	<path class="st1" d="M353.4,342.1c5.7-2.6,12.5,3.6,10.5,9.6c-1.4,5.8-9.5,7.7-13.4,3.3C346.6,351.2,348.3,343.8,353.4,342.1z"/>
	<path class="st1" d="M219.5,441.2c5.3-2.6,12,2.5,10.9,8.3c-0.5,5.9-8.2,9-12.7,5.3C212.8,451.5,214.1,443.2,219.5,441.2z"/>
	<path class="st1" d="M281.7,762.2c5.1-3.5,11.7-2.6,17.3-1.1c-0.6,2.1-1.3,4.1-2,6.2c-3-0.5-6.4-1.7-9.2,0
		c-2.7,2.1-2.1,5.9-2.3,8.9c3.2,0,6.4,0,9.6,0c0,2.1,0,4.1,0,6.2c-3.2,0-6.4,0-9.6,0c0,11,0,22,0,33.1c-2.8,0-5.5,0-8.2,0
		c0-11,0-22.1,0-33.1c-2.2,0-4.3,0-6.5,0c0-1.3,0-2.5,0-3.8c2.1-0.8,4.3-1.7,6.4-2.6C277.2,771.2,277.4,765.3,281.7,762.2z"/>
	<path class="st1" d="M309.8,783.5c3.1-5.8,9.7-9.3,16.3-7.8c-0.3,2.5-0.5,5-0.7,7.6c-3-0.2-6.2-0.5-9,0.9
		c-3.9,1.8-6.1,6.2-6.1,10.4c-0.1,7,0,14,0,20.9c-2.7,0-5.5,0-8.2,0c0-13.1,0-26.2,0-39.3c2.1,0,4.3,0,6.4,0
		C308.8,778.6,309.2,781,309.8,783.5z"/>
	<g>
		<path class="st1" d="M343.6,776.3c6.2-1.6,13.4-1,18.4,3.3c4.6,3.9,6.3,10.1,6.3,15.9c0.2,6.8-2.2,14.4-8.4,18
			c-7.6,4.3-18.6,3.4-24.3-3.6c-4.6-5.7-5.1-13.6-3.8-20.5C333,783.3,337.5,777.8,343.6,776.3z M345.3,782.9
			c-4.1,1.7-5.3,6.6-5.6,10.6c-0.2,4.7,0,10.2,3.5,13.7c4.1,3.6,11.7,3,14.6-1.9c1.7-2.9,2.1-6.5,2.1-9.8c-0.1-3.5-0.5-7.3-2.7-10.2
			C354.5,781.8,349.2,781.4,345.3,782.9z"/>
	</g>
	<path class="st1" d="M385.8,781.5c5.4-8,19.5-8.4,24.3,0.4c4.4-6.8,14.2-8.2,20.9-4.4c3.9,2.6,4.9,7.6,5,12c0,8.7,0,17.3,0,26
		c-2.7,0-5.5,0-8.2,0c0-8,0-16,0-24c0-3-0.4-6.8-3.3-8.5c-5.2-2.7-12.5,0.5-12.9,6.6c-1.1,8.6-0.2,17.2-0.5,25.8c-2.7,0-5.5,0-8.2,0
		c0-8.3,0.1-16.6,0-25c-0.1-2.8-0.7-6-3.3-7.5c-2.7-1.4-6.1-1.1-8.8,0.3c-3.4,2-4.1,6.3-4.4,9.9c-0.3,7.4-0.1,14.9-0.1,22.3
		c-2.7,0-5.5,0-8.2,0c0-13.1,0-26.2,0-39.3c2.1,0,4.2,0,6.4,0C384.9,777.9,385.3,779.7,385.8,781.5z"/>
	<path class="st1" d="M89.2,835.9c3.6-5.7,10.6-8.3,17.2-7.9c0.1,3.4,0,6.8,0.1,10.2c-3.4-0.8-7.4,0.6-8.3,4.3
		c-0.7,5.4-0.2,10.9-0.4,16.4c2.9,0,5.8,0,8.6,0c0,3.1,0,6.3,0,9.4c-2.9,0-5.8,0-8.6,0c0,15.9,0,31.8,0,47.7c-3.8,0-7.6,0-11.4,0
		c0-15.9,0-31.8,0-47.7c-2.9,0-5.8,0-8.7,0c0-3.2,0-6.3,0-9.4c2.9,0,5.8,0,8.6,0C86.9,851.3,84.6,842.7,89.2,835.9z"/>
	<path class="st1" d="M118.9,828.3c3.8,0,7.6,0,11.5,0c0,29.3,0,58.6,0,87.9c-3.8,0-7.7,0-11.5,0
		C118.9,886.8,118.9,857.5,118.9,828.3z"/>
	<path class="st1" d="M220.1,828.2c3.8,0,7.6,0,11.5,0c0,10.5,0,21,0,31.5c5.5-2.8,12.2-4,18.1-1.7c7.1,2.5,11.3,10.2,11.2,17.4
		c0,13.5,0,27.1,0,40.7c-3.9,0-7.9,0-11.8,0c-0.2-14.3,0.1-28.6-0.2-42.8c-2.5-7.5-14.3-6.5-17.2,0.2c-0.3,14.2,0,28.4-0.1,42.7
		c-3.8,0-7.7,0-11.5,0C220.1,886.8,220.1,857.5,220.1,828.2z"/>
	<path class="st1" d="M281.6,828.2c3.8,0,7.7,0,11.5,0c0,10.3,0,20.5,0,30.8c2.9,0,5.8,0,8.8,0c0,3.2,0,6.3,0,9.5
		c-2.9,0-5.8,0-8.7,0c0.1,10.7-0.2,21.4,0.1,32.1c0.1,4.2,4.8,6.7,8.6,5.5c-0.1,3.4,0,6.8-0.1,10.2c-5.7,0.4-12-1.3-15.8-5.8
		c-3-3.3-4.5-7.6-4.4-12c0-10,0-20,0-29.9c-2.9,0-5.8,0-8.6,0c0-3.2,0-6.4,0-9.5c2.9,0,5.8,0,8.6,0
		C281.5,848.8,281.6,838.5,281.6,828.2z"/>
	<g>
		<path class="st1" d="M419.9,828.3c3.9,0,7.7,0,11.6,0c0,29.3,0,58.5,0,87.8c-3.7-0.1-7.5,0.2-11.2-0.1l-0.8-1.1
			c-4.6,1.8-9.8,2.3-14.5,0.6c-6-2-10.9-7.6-11-14.1c-0.1-10,0-20,0-30c-0.1-8.2,7.3-14.9,15.1-15.6c3.8-0.5,7.5,0.5,11,1.7
			C419.9,847.8,419.9,838.1,419.9,828.3z M408.2,866.7c-2.2,1-3.6,3.4-3.4,5.8c0,10-0.2,20,0.1,30c1.3,7.5,14.8,5.5,14-2
			c-0.1-10,0.3-20-0.2-30C416.9,866.9,411.8,865,408.2,866.7z"/>
	</g>
	<path class="st1" d="M146.5,835.2c4.1-2,10.1,1.5,9.2,6.3c-0.7,4.9-7.7,6.7-10.9,3.1C142,842,142.9,836.7,146.5,835.2z"/>
	<path class="st1" d="M326.5,857.5c2.7-0.9,5.4-1.5,8.2-1.7c0,3.2,0,6.3,0.1,9.5c-3.2,0.2-7.2,0.9-8.6,4.2
		c-0.2,15.6,0,31.2-0.1,46.8c-3.9,0-7.8,0-11.7,0c0-19.9,0-39.9,0-59.8c3.7,0,7.5-0.3,11.2,0.1L326.5,857.5z"/>
	<g>
		<path class="st1" d="M357.8,856.3c4.3-1.1,8.8-0.3,12.9,1.2l0.8-1.2c3.7-0.3,7.3,0,11-0.1c0,19.9,0,39.9,0,59.8
			c-3.7-0.1-7.4,0.2-11-0.1l-0.8-1.2c-4.6,1.8-9.7,2.3-14.4,0.7c-6.4-1.9-11.6-8.1-11.3-14.9c0-10-0.1-20,0-30
			C345.3,863.5,351.1,857.7,357.8,856.3z M358.4,866.2c-1.4,0.9-2.6,2.5-2.5,4.3c-0.1,9.3,0,18.7-0.1,28c0,1.9-0.1,4.2,1.4,5.6
			c3.7,4.4,12.9,1.4,12.5-4.6c0-9,0-18.1,0-27.1C370.8,866.6,362.8,863.3,358.4,866.2z"/>
	</g>
	<g>
		<path class="st1" d="M451.2,858.7c5.4-3.6,12.5-3.7,18.4-1.2c0.3-0.3,0.8-0.9,1.1-1.2c3.6-0.2,7.2,0,10.8-0.1
			c0,19.9,0,39.9,0,59.8c-3.6,0-7.3,0-10.9,0c-0.3-0.3-0.8-0.9-1-1.2c-4.4,1.5-9.2,2.2-13.7,0.8c-6.7-1.7-12.2-8-11.9-15.1
			c0-9.7,0-19.4,0-29.1C444,866.3,446.9,861.4,451.2,858.7z M459.1,865.6c-2.5,0.7-4.4,3.2-4.1,5.9c0.1,10.1-0.1,20.1,0.1,30.2
			c1.5,6.6,11.8,5.5,13.6-0.3c0.3-10,0.1-20,0.1-29.9C469,866.7,463,864.3,459.1,865.6z"/>
	</g>
	<path class="st1" d="M143.6,856.2c3.8,0,7.7,0,11.5,0c-0.1,20,0,40-0.2,60c-3.8,0-7.7,0-11.5,0
		C143.5,896.3,143.5,876.2,143.6,856.2z"/>
	<g>
		<path class="st1" d="M173.3,861.8c5.2-5.8,14.1-6.8,21.1-3.9c0.2-0.3,0.6-1,0.8-1.3c3.6-0.3,7.2-0.1,10.8-0.1
			c-0.1,23.7,0.1,47.4-0.1,71.1c-0.7,9.4-10.4,16-19.5,14.9c-0.1-3.3,0-6.5-0.1-9.7c3.3,0.6,7.4-0.7,8.2-4.3
			c0.8-4.8,0.2-9.7,0.4-14.5c-5,2-10.7,2.7-15.7,0.4c-5.4-2.2-9.6-7.4-9.8-13.3c-0.3-8.8,0-17.7-0.1-26.5
			C169,869.9,170,865.1,173.3,861.8z M183.3,865.9c-2.1,1-3.5,3.2-3.3,5.5c0.1,10-0.2,20.1,0.2,30.1c1.7,6,11.6,5.1,13.3-0.4
			c0.1-10.4,0.2-20.8,0-31.1C192.1,866.2,186.9,864.3,183.3,865.9z"/>
	</g>
	<path class="st1" d="M494.7,856.4c4.1,0.5,8.7-1.1,12.4,1c2.6-0.9,5.2-1.4,7.9-1.6c0,3.1,0,6.3,0,9.5c-3.2,0.2-7.4,0.9-8.6,4.3
		c-0.2,15.5-0.1,31.1-0.1,46.6c-3.9,0-7.8,0-11.7,0C494.7,896.3,494.7,876.4,494.7,856.4z"/>
</g>
<g>
	<path class="st2" d="M135.6,248c7.5-3.6,16.6-2,23.2,2.8c5.1,3.8,8.6,9.6,9.9,15.8c0.9,4.6,0.5,9.3,0.5,13.9
		c-0.6,50.7-1.1,101.3-1.7,152c0,6.1-2,12.2-5.9,16.9c-5.3,6-13.5,9.8-21.6,8.2c-12.1-2-20.9-14-20.6-26c0.5-53.3,1.2-106.7,1.7-160
		C120.9,261.8,126.5,252,135.6,248z"/>
	<path class="st2" d="M553.3,251.3c5.7-4.4,13.3-6.4,20.3-4.4c11.1,3,18.9,14.3,18.6,25.6c-0.5,53.6-1.2,107.3-1.8,160.9
		c-0.1,10.8-7.6,21.4-18.3,23.9c-7.7,2-16-0.9-21.7-6.2c-4.1-4-6.8-9.3-7.7-14.9c-0.6-4.2-0.3-8.5-0.3-12.8
		c0.5-48.3,1.1-96.6,1.6-144.9c0.1-5.4-0.3-11,1.6-16.2C547.1,258.1,549.8,254.2,553.3,251.3z"/>
	<path class="st2" d="M525,855c8.5-5.9,19.4-8.1,29.5-5.9c6.4,1.4,12.3,5.9,14.5,12.3c2.5,6.9,0.8,14.8-3.2,20.9
		c-6.1,9.3-15,16.3-23.3,23.4c9.7,0.2,19.5,0,29.2,0.1c0,3.4,0,6.9,0,10.3c-16,0-32.1,0-48.1,0c0-2.5,0-5,0-7.5
		c8.3-7.2,16.8-14.1,24.3-22.1c4.1-4.5,8.3-9.6,8.8-16c0.5-4.6-2-9.6-6.6-11.1c-7.3-2.7-15.3,0.2-21.4,4.4
		C527.5,860.9,526.2,858,525,855z"/>
	<g>
		<path class="st2" d="M581.3,889c9.2-13.2,18.4-26.4,27.6-39.6c5.2,0,10.5-0.1,15.7,0.1c0,13.4,0,26.9,0,40.3c3.1,0,6.1,0,9.2,0
			c0,3.1,0,6.2,0,9.3c-3,0-6.1,0-9.1,0c0,5.7,0,11.3,0,17c-4.2,0-8.4,0-12.5,0c0-5.7,0-11.3,0-17c-10.7,0-21.4,0-32.1,0
			C580.2,895.7,578.9,891.8,581.3,889z M604.8,872.3c-4.1,5.8-8.3,11.7-12.4,17.5c6.6,0.1,13.1,0,19.7,0c0-10.1-0.1-20.3,0.2-30.4
			C609.6,863.6,607.7,868.2,604.8,872.3z"/>
	</g>
</g>
</svg>
